<?xml version="1.0" encoding="UTF-8"?>
<svg xmlns="http://www.w3.org/2000/svg" xmlns:xlink="http://www.w3.org/1999/xlink" viewBox="0 0 50 50" width="50px" height="50px">
<g id="surface160620134">
<path style=" stroke:none;fill-rule:nonzero;fill:rgb(80.000001%,83.529413%,95.294118%);fill-opacity:1;" d="M 9 4 C 6.25 4 4 6.25 4 9 L 4 41 C 4 43.75 6.25 46 9 46 L 41 46 C 43.75 46 46 43.75 46 41 L 46 9 C 46 6.25 43.75 4 41 4 Z M 9 6 L 41 6 C 42.667969 6 44 7.332031 44 9 L 44 41 C 44 42.667969 42.667969 44 41 44 L 9 44 C 7.332031 44 6 42.667969 6 41 L 6 9 C 6 7.332031 7.332031 6 9 6 Z M 11 16 C 10.449219 16 10 16.449219 10 17 L 10 33.003906 C 10 33.554688 10.449219 34 11 34.003906 L 18.609375 34.003906 C 18.609375 34.003906 18.609375 34.003906 18.613281 34.003906 C 19.023438 34 20.46875 33.964844 21.964844 33.261719 C 23.464844 32.5625 25 30.980469 25 28.425781 C 25 26.808594 24.46875 25.585938 23.757812 24.785156 C 23.460938 24.449219 23.183594 24.410156 22.867188 24.203125 C 23.46875 23.5 24 22.546875 24 21 C 24 18.617188 22.695312 17.136719 21.351562 16.535156 C 20.011719 15.9375 18.632812 16 18.292969 16 Z M 30 16 C 29.640625 15.996094 29.304688 16.183594 29.121094 16.496094 C 28.941406 16.808594 28.941406 17.191406 29.121094 17.503906 C 29.304688 17.816406 29.640625 18.003906 30 18 L 36 18 C 36.359375 18.003906 36.695312 17.816406 36.878906 17.503906 C 37.058594 17.191406 37.058594 16.808594 36.878906 16.496094 C 36.695312 16.183594 36.359375 15.996094 36 16 Z M 12 18 L 18.292969 18 C 18.746094 18 19.722656 17.996094 20.535156 18.363281 C 21.347656 18.726562 22 19.25 22 21 C 22 22.875 21.277344 23.234375 20.847656 23.457031 C 20.492188 23.640625 20.28125 24.019531 20.308594 24.417969 C 20.339844 24.816406 20.601562 25.160156 20.980469 25.292969 C 21.359375 25.421875 21.863281 25.664062 22.261719 26.113281 C 22.660156 26.558594 23 27.21875 23 28.429688 C 23 30.257812 22.15625 30.964844 21.117188 31.453125 C 20.078125 31.941406 18.832031 32 18.609375 32.003906 L 12 32.003906 Z M 33 19 C 32.085938 19 30.417969 19.179688 28.863281 20.246094 C 27.308594 21.316406 26 23.339844 26 26.5 C 26 29.445312 27.207031 31.445312 28.730469 32.566406 C 30.25 33.691406 31.96875 34 33.171875 34 C 35.710938 34 37.503906 33.136719 38.582031 31.910156 C 39.574219 30.777344 39.902344 29.441406 39.953125 28.296875 C 39.980469 28.210938 39.996094 28.125 40 28.035156 C 40 28.027344 39.996094 28.015625 40 28.007812 C 40 28.003906 40 28.003906 40 28 C 40 27.964844 39.996094 27.933594 39.996094 27.902344 C 39.996094 27.898438 39.996094 27.898438 39.996094 27.898438 C 40.046875 26.089844 39.910156 24 38.945312 22.214844 C 37.953125 20.382812 35.964844 19 33 19 Z M 15 20 L 15 23 L 17.621094 23 C 17.976562 23 19.167969 22.773438 19.167969 21.433594 C 19.167969 20.09375 17.617188 20 17.382812 20 Z M 33 21 C 35.410156 21 36.484375 21.867188 37.183594 23.160156 C 37.746094 24.210938 37.917969 25.617188 37.953125 27 L 31 27 C 30.449219 27 30 27.449219 30 28 C 30 28 30.007812 28.253906 30.082031 28.472656 C 30.15625 28.691406 30.300781 28.964844 30.542969 29.207031 C 31.027344 29.691406 31.832031 30 33 30 C 34.167969 30 34.972656 29.691406 35.457031 29.207031 C 35.527344 29.136719 35.535156 29.070312 35.589844 29 L 37.84375 29 C 37.707031 29.554688 37.496094 30.113281 37.078125 30.589844 C 36.398438 31.363281 35.277344 32 33.171875 32 C 32.339844 32 30.976562 31.742188 29.917969 30.960938 C 28.859375 30.179688 28 28.929688 28 26.5 C 28 23.855469 28.929688 22.628906 29.996094 21.894531 C 31.0625 21.164062 32.390625 21 33 21 Z M 33.085938 22.601562 C 32.496094 22.601562 32.070312 22.675781 31.730469 22.832031 C 31.394531 22.984375 31.144531 23.21875 30.886719 23.449219 C 30.71875 23.683594 30.550781 23.917969 30.464844 24.226562 C 30.378906 24.457031 30.296875 24.691406 30.296875 25.003906 L 35.707031 25.003906 C 35.621094 24.226562 35.367188 23.609375 34.945312 23.222656 C 34.519531 22.832031 33.929688 22.601562 33.085938 22.601562 Z M 15.035156 26 L 15.035156 29.980469 L 17.964844 29.980469 C 18.21875 29.980469 20 29.882812 20 28.0625 C 20 26.246094 18.597656 26 17.964844 26 Z M 15.035156 26 "/>
</g>
</svg>
