<?xml version="1.0" encoding="UTF-8"?>
<svg xmlns="http://www.w3.org/2000/svg" xmlns:xlink="http://www.w3.org/1999/xlink" viewBox="0 0 50 50" width="50px" height="50px">
<g id="surface160442903">
<path style=" stroke:none;fill-rule:nonzero;fill:rgb(80.000001%,83.529413%,95.294118%);fill-opacity:1;" d="M 25 2 C 12.3125 2 2 12.3125 2 25 C 2 37.6875 12.3125 48 25 48 C 37.6875 48 48 37.6875 48 25 C 48 12.3125 37.6875 2 25 2 Z M 25 4 C 36.605469 4 46 13.394531 46 25 C 46 25.070312 45.996094 25.140625 45.996094 25.214844 C 45.355469 25.152344 44.617188 25.097656 43.675781 25.066406 C 42.347656 25.015625 40.671875 25.03125 38.773438 25.125 C 38.84375 24.632812 38.894531 24.136719 38.894531 23.628906 C 38.992188 21.753906 38.363281 20.003906 37.339844 18.457031 C 37.585938 17.601562 37.875 16.515625 37.949219 15.285156 C 38.03125 13.878906 37.910156 12.320312 36.785156 11.269531 L 36.496094 11 L 36.101562 11 C 33.417969 11 31.578125 12.125 30.457031 13.011719 C 28.835938 12.386719 27.011719 12 25 12 C 22.976562 12 21.136719 12.390625 19.449219 13.019531 C 18.324219 12.125 16.488281 11 13.800781 11 L 13.410156 11 L 13.121094 11.269531 C 12.019531 12.289062 11.917969 13.800781 11.988281 15.199219 C 12.046875 16.429688 12.320312 17.550781 12.566406 18.449219 C 11.523438 20.023438 10.902344 21.820312 10.902344 23.601562 C 10.902344 24.109375 10.949219 24.609375 11.019531 25.101562 C 9.210938 25.019531 7.601562 25 6.324219 25.046875 C 5.382812 25.082031 4.644531 25.136719 4.003906 25.195312 C 4.003906 25.128906 4 25.066406 4 25 C 4 13.394531 13.394531 4 25 4 Z M 14.394531 13.128906 C 16.414062 13.320312 17.933594 14.222656 18.632812 14.847656 L 19.101562 15.261719 L 19.679688 15.023438 C 21.261719 14.375 23.027344 14 25 14 C 26.972656 14 28.738281 14.375 30.199219 15.015625 L 30.785156 15.273438 L 31.261719 14.847656 C 31.964844 14.222656 33.488281 13.320312 35.503906 13.128906 C 35.773438 13.574219 36.007812 14.207031 35.949219 15.164062 C 35.882812 16.3125 35.578125 17.558594 35.34375 18.300781 L 35.195312 18.78125 L 35.492188 19.191406 C 36.484375 20.539062 36.988281 22 36.902344 23.542969 L 36.898438 23.570312 L 36.898438 23.597656 C 36.898438 26.09375 36 28.09375 34.085938 29.570312 C 32.175781 31.050781 29.152344 32 24.898438 32 C 20.648438 32 17.625 31.050781 15.710938 29.570312 C 13.796875 28.09375 12.898438 26.09375 12.898438 23.597656 C 12.898438 22.136719 13.429688 20.523438 14.40625 19.191406 L 14.699219 18.792969 L 14.558594 18.316406 C 14.328125 17.53125 14.042969 16.253906 13.984375 15.101562 C 13.9375 14.144531 14.167969 13.535156 14.394531 13.128906 Z M 8.882812 26.019531 C 9.589844 26.03125 10.402344 26.070312 11.210938 26.109375 C 11.289062 26.421875 11.378906 26.726562 11.484375 27.027344 C 8.179688 27.097656 5.703125 27.429688 4.179688 27.714844 C 4.113281 27.214844 4.0625 26.710938 4.035156 26.199219 C 5.164062 26.09375 6.75 25.996094 8.882812 26.019531 Z M 41.113281 26.035156 C 43.246094 26.011719 44.835938 26.109375 45.960938 26.214844 C 45.933594 26.71875 45.882812 27.214844 45.820312 27.707031 C 44.242188 27.417969 41.699219 27.085938 38.304688 27.03125 C 38.410156 26.738281 38.5 26.4375 38.574219 26.132812 C 39.472656 26.085938 40.34375 26.046875 41.113281 26.035156 Z M 11.910156 28.019531 C 12.507812 29.214844 13.363281 30.28125 14.488281 31.15625 C 16.027344 32.34375 18.03125 33.179688 20.476562 33.625 C 20.15625 33.953125 19.867188 34.3125 19.605469 34.695312 L 19.546875 34.640625 C 19.550781 34.632812 19.050781 34.886719 18.300781 34.953125 C 17.546875 35.019531 16.621094 35 15.800781 35 C 14.574219 35 14.035156 34.421875 13.175781 33.367188 C 12.695312 32.722656 12.113281 32.203125 11.550781 31.808594 C 10.96875 31.402344 10.476562 31.117188 9.867188 31.015625 L 9.785156 31 L 9.699219 31 C 9.234375 31 8.78125 31.035156 8.359375 31.515625 C 8.148438 31.757812 8.003906 32.203125 8.097656 32.582031 C 8.191406 32.957031 8.429688 33.191406 8.644531 33.332031 C 10.011719 34.242188 10.253906 36.046875 11.109375 37.652344 C 11.910156 39.246094 13.636719 40 15.402344 40 L 18 40 L 18 44.804688 C 10.96875 42.320312 5.664062 36.203125 4.332031 28.703125 C 5.863281 28.414062 8.425781 28.066406 11.914062 28.019531 Z M 37.882812 28.027344 C 41.445312 28.058594 44.082031 28.402344 45.667969 28.695312 C 44.339844 36.203125 39.035156 42.320312 32 44.800781 L 32 39.597656 C 32 38.015625 31.480469 36.269531 30.574219 34.808594 C 30.300781 34.367188 29.976562 33.949219 29.613281 33.574219 C 31.929688 33.117188 33.832031 32.296875 35.3125 31.152344 C 36.4375 30.285156 37.289062 29.21875 37.882812 28.027344 Z M 23.699219 34.097656 L 26.5 34.097656 C 27.3125 34.097656 28.179688 34.746094 28.875 35.863281 C 29.570312 36.984375 30 38.484375 30 39.597656 L 30 45.398438 C 28.398438 45.789062 26.722656 46 25 46 C 23.277344 46 21.601562 45.789062 20 45.398438 L 20 39.597656 C 20 38.507812 20.46875 37.011719 21.207031 35.886719 C 21.949219 34.765625 22.886719 34.097656 23.699219 34.097656 Z M 12.308594 35.28125 C 13.175781 36.179688 14.222656 37 15.800781 37 C 16.578125 37 17.550781 37.027344 18.476562 36.945312 C 18.480469 36.945312 18.484375 36.945312 18.488281 36.941406 C 18.363281 37.292969 18.273438 37.644531 18.199219 38 L 15.402344 38 C 14.167969 38 13.296875 37.554688 12.894531 36.753906 L 12.886719 36.738281 L 12.882812 36.726562 C 12.714844 36.421875 12.5 35.8125 12.308594 35.28125 Z M 12.308594 35.28125 "/>
</g>
</svg>
