<?xml version="1.0" encoding="UTF-8"?>
<svg xmlns="http://www.w3.org/2000/svg" xmlns:xlink="http://www.w3.org/1999/xlink" viewBox="0 0 50 50" width="50px" height="50px">
<g id="surface160862307">
<path style=" stroke:none;fill-rule:nonzero;fill:rgb(80.000001%,83.529413%,95.294118%);fill-opacity:1;" d="M 25 2 C 12.308594 2 2 12.308594 2 25 C 2 37.691406 12.308594 48 25 48 C 37.691406 48 48 37.691406 48 25 C 48 12.308594 37.691406 2 25 2 Z M 25 4 C 36.609375 4 46 13.390625 46 25 C 46 36.609375 36.609375 46 25 46 C 13.390625 46 4 36.609375 4 25 C 4 13.390625 13.390625 4 25 4 Z M 16 12 C 14.355469 12 13 13.355469 13 15 C 13 16.644531 14.355469 18 16 18 C 17.644531 18 19 16.644531 19 15 C 19 13.355469 17.644531 12 16 12 Z M 16 14 C 16.5625 14 17 14.4375 17 15 C 17 15.5625 16.5625 16 16 16 C 15.4375 16 15 15.5625 15 15 C 15 14.4375 15.4375 14 16 14 Z M 14 19 C 13.449219 19 13 19.449219 13 20 L 13 35 C 13 35.550781 13.449219 36 14 36 L 18 36 C 18.550781 36 19 35.550781 19 35 L 19 20 C 19 19.449219 18.550781 19 18 19 Z M 22 19 C 21.449219 19 21 19.449219 21 20 L 21 35 C 21 35.550781 21.449219 36 22 36 L 26 36 C 26.550781 36 27 35.550781 27 35 L 27 27.5 C 27 26.121094 28.121094 25 29.5 25 C 30.878906 25 32 26.121094 32 27.5 L 32 35 C 32 35.550781 32.449219 36 33 36 L 37 36 C 37.550781 36 38 35.550781 38 35 L 38 26.5 C 38 22.371094 34.628906 19 30.5 19 C 29.214844 19 28.058594 19.417969 27 19.988281 C 26.996094 19.441406 26.546875 19 26 19 Z M 15 21 L 17 21 L 17 34 L 15 34 Z M 23 21 L 25 21 L 25 21.816406 C 25 22.21875 25.238281 22.578125 25.609375 22.738281 C 25.976562 22.894531 26.40625 22.816406 26.691406 22.539062 C 27.683594 21.585938 29.015625 21 30.5 21 C 33.550781 21 36 23.449219 36 26.5 L 36 34 L 34 34 L 34 27.5 C 34 25.03125 31.96875 23 29.5 23 C 27.03125 23 25 25.03125 25 27.5 L 25 34 L 23 34 Z M 23 21 "/>
</g>
</svg>
