<?xml version="1.0" encoding="UTF-8"?>
<svg xmlns="http://www.w3.org/2000/svg" xmlns:xlink="http://www.w3.org/1999/xlink" viewBox="0 0 50 50" width="50px" height="50px">
<g id="surface162444319">
<path style=" stroke:none;fill-rule:nonzero;fill:rgb(76.078433%,79.607844%,91.37255%);fill-opacity:1;" d="M 32.8125 4.296875 C 32.148438 4.296875 31.640625 4.804688 31.640625 5.46875 C 31.640625 6.132812 32.148438 6.640625 32.8125 6.640625 L 41.71875 6.640625 L 23.59375 24.765625 C 23.125 25.234375 23.125 25.976562 23.59375 26.40625 C 23.828125 26.640625 24.140625 26.757812 24.414062 26.757812 C 24.6875 26.757812 25 26.640625 25.234375 26.40625 L 43.359375 8.28125 L 43.359375 17.1875 C 43.359375 17.851562 43.867188 18.359375 44.53125 18.359375 C 45.195312 18.359375 45.703125 17.851562 45.703125 17.1875 L 45.703125 5.46875 C 45.703125 4.804688 45.195312 4.296875 44.53125 4.296875 Z M 9.375 12.109375 C 6.5625 12.109375 4.296875 14.375 4.296875 17.1875 L 4.296875 40.625 C 4.296875 43.4375 6.5625 45.703125 9.375 45.703125 L 32.8125 45.703125 C 35.625 45.703125 37.890625 43.4375 37.890625 40.625 L 37.890625 23.046875 C 37.890625 22.382812 37.382812 21.875 36.71875 21.875 C 36.054688 21.875 35.546875 22.382812 35.546875 23.046875 L 35.546875 40.625 C 35.546875 42.148438 34.335938 43.359375 32.8125 43.359375 L 9.375 43.359375 C 7.851562 43.359375 6.640625 42.148438 6.640625 40.625 L 6.640625 17.1875 C 6.640625 15.664062 7.851562 14.453125 9.375 14.453125 L 26.953125 14.453125 C 27.617188 14.453125 28.125 13.945312 28.125 13.28125 C 28.125 12.617188 27.617188 12.109375 26.953125 12.109375 Z M 9.375 12.109375 "/>
</g>
</svg>
